<?xml version="1.0" encoding="UTF-8" standalone="no"?>
<!-- Created with Inkscape (http://www.inkscape.org/) -->

<svg
   version="1.1"
   id="svg1"
   width="309"
   height="275"
   viewBox="0 0 309 275"
   sodipodi:docname="branco.svg"
   inkscape:version="1.3 (0e150ed6c4, 2023-07-21)"
   xmlns:inkscape="http://www.inkscape.org/namespaces/inkscape"
   xmlns:sodipodi="http://sodipodi.sourceforge.net/DTD/sodipodi-0.dtd"
   xmlns="http://www.w3.org/2000/svg"
   xmlns:svg="http://www.w3.org/2000/svg">
  <defs
     id="defs1" />
  <sodipodi:namedview
     id="namedview1"
     pagecolor="#505050"
     bordercolor="#eeeeee"
     borderopacity="1"
     inkscape:showpageshadow="0"
     inkscape:pageopacity="0"
     inkscape:pagecheckerboard="0"
     inkscape:deskcolor="#505050"
     inkscape:zoom="1.5469256"
     inkscape:cx="200.72071"
     inkscape:cy="151.591"
     inkscape:window-width="1366"
     inkscape:window-height="705"
     inkscape:window-x="-8"
     inkscape:window-y="-8"
     inkscape:window-maximized="1"
     inkscape:current-layer="g1" />
  <g
     inkscape:groupmode="layer"
     inkscape:label="Image"
     id="g1">
    <g
       id="g9"
       transform="translate(-39.252597,-1.9393303)"
       style="fill:#ffffff;fill-opacity:1">
      <path
         style="fill:#ffffff;fill-opacity:1"
         d="m 172.35091,240.05053 c -1.46802,-1.46802 -2.60614,-1.80471 -4.15888,-1.23031 -4.18069,1.54654 -6.43315,-3.98749 -3.0826,-7.57357 0.48818,-0.5225 0.88929,-1.8725 0.89134,-3 0.006,-3.24309 3.71862,-8.55 5.98156,-8.55 1.62047,0 2.0147,0.65848 2.0147,3.36514 0,1.85095 -0.89993,4.50922 -2,5.90773 -2.65182,3.37125 -2.59108,5.04951 0.15127,4.17912 1.74008,-0.55228 2.02748,-0.36017 1.50359,1.00505 -0.35623,0.92832 -0.17011,2.58019 0.41358,3.67084 1.66971,3.11988 0.58613,4.52668 -1.71456,2.226 z m -4.35388,-5.35388 c 0,-0.55 -0.19844,-1 -0.44098,-1 -0.24254,0 -0.7191,0.45 -1.05902,1 -0.33992,0.55 -0.14147,1 0.44099,1 0.58246,0 1.05901,-0.45 1.05901,-1 z M 171.34,223.44257 c -0.71461,-1.15626 -2.31933,1.11824 -2.29585,3.25408 0.0127,1.15354 0.34821,1.06176 1.45265,-0.39732 0.78989,-1.04353 1.16933,-2.32907 0.8432,-2.85676 z M 78.52188,234.5193 c -2.74982,-6.02062 -4.32376,-13.82265 -2.78852,-13.82265 0.54558,0 1.78726,2.1375 2.75931,4.75 2.33153,6.2663 3.10815,6.96787 3.95553,3.57322 1.03366,-4.14093 4.48539,-9.32322 6.20985,-9.32322 1.16673,0 1.34326,0.71852 0.79847,3.25 -0.93206,4.33102 -5.91586,15.29599 -7.35724,16.18681 -0.72836,0.45015 -2.03283,-1.23236 -3.5774,-4.61416 z m 11.27653,4.6454 c -0.32678,-0.32679 -0.35653,-2.36578 -0.0661,-4.5311 0.37775,-2.81632 0.16182,-3.93695 -0.7586,-3.93695 -0.88257,0 -0.72881,-0.61641 0.48961,-1.96275 0.97695,-1.07952 1.54676,-2.56087 1.26624,-3.2919 -0.67695,-1.76409 1.80933,-5.06245 4.01315,-5.32394 0.96488,-0.11449 3.21682,-0.53739 5.00432,-0.93978 4.70037,-1.05813 4.01797,0.74673 -1.25,3.30611 -5.01351,2.43575 -6.20518,5.26088 -1.86949,4.43206 3.44262,-0.6581 2.77786,1.97738 -0.70465,2.79361 -1.53963,0.36086 -2.5461,1.4023 -2.75499,2.85072 -0.3134,2.17302 -0.11018,2.24931 4.25,1.59547 2.51852,-0.37768 4.57224,-0.29809 4.56382,0.17686 -0.0343,1.93664 -1.68483,3.11187 -5.3057,3.77793 -2.10156,0.38659 -4.37507,0.91549 -5.05224,1.17534 -0.67717,0.25986 -1.49859,0.2051 -1.82537,-0.12168 z m 13.88885,-0.83292 c -1.60492,-4.18235 0.99207,-18.63513 3.34851,-18.63513 0.52869,0 0.96126,0.44035 0.96126,0.97856 0,0.59248 0.99706,0.52427 2.52713,-0.17287 1.80088,-0.82054 2.83578,-0.84278 3.60116,-0.0774 1.5387,1.5387 0.0992,6.99896 -2.28549,8.66926 -1.88368,1.31938 -1.90792,1.57584 -0.42081,4.45158 1.96513,3.80015 1.99396,5.15087 0.10995,5.15087 -0.80744,0 -2.11296,-1.23083 -2.90117,-2.73518 l -1.43311,-2.73518 -1.4086,3.4521 c -1.16143,2.84636 -1.52972,3.13648 -2.09883,1.65339 z m 8.30977,-15.4009 c 0,-1.30368 -0.31152,-1.26229 -2,0.26577 -1.1,0.99549 -1.98503,2.75273 -1.96673,3.90499 0.0324,2.03968 0.0852,2.03266 2,-0.26577 1.0817,-1.29844 1.96673,-3.05568 1.96673,-3.90499 z m 4.45455,14.31122 c -2.41139,-2.41138 -3.30264,-5.54545 -1.57699,-5.54545 0.48265,0 1.43775,0.675 2.12244,1.5 3.33368,4.01684 6.7074,0.13965 3.5318,-4.05887 -1.79043,-2.36716 -1.96132,-6.61161 -0.3318,-8.24113 1.94556,-1.94556 5.58864,-1.44128 6.32392,0.87536 0.85178,2.68374 -0.0621,3.5528 -2.02392,1.92464 -2.43896,-2.02416 -3.07202,-0.23836 -1.09934,3.10112 1.31672,2.22902 1.61217,4.02082 1.10795,6.71923 -1.24148,6.64388 -3.90389,7.87528 -8.05406,3.7251 z m 13.4311,0.3402 c -4.68145,-4.68145 -0.0257,-19.39504 5.91454,-18.69165 1.98369,0.23489 2.78324,1.07916 3.44058,3.63305 1.43746,5.58475 -2.82198,17.17295 -6.3122,17.17295 -0.51071,0 -1.88003,-0.95146 -3.04292,-2.11435 z m 5.07917,-4.81991 c 1.29466,-2.4191 1.36646,-11.06574 0.0919,-11.06574 -1.92694,0 -4.05671,4.57931 -4.05671,8.72251 0,4.67877 2.06251,5.89773 3.96482,2.34323 z m 6.61739,3.84959 c -2.81522,-3.34571 -2.54216,-6.09405 0.34581,-3.48047 0.95121,0.86083 2.53261,1.56514 3.51422,1.56514 1.48249,0 1.67282,-0.55043 1.12381,-3.25 -1.84481,-9.07114 -1.82916,-9.4523 0.45374,-11.05131 2.60934,-1.82765 4.6599,-1.28326 5.53345,1.46905 0.83621,2.63466 -0.21657,3.5236 -2.4909,2.10326 -2.6149,-1.63303 -3.3537,-0.36463 -1.46584,2.51661 2.11612,3.22961 2.04058,8.85095 -0.15148,11.27315 -2.42294,2.67732 -3.84604,2.4398 -6.86281,-1.14543 z m 45.21917,2.55272 c -0.32678,-0.32679 -0.35652,-2.36578 -0.0661,-4.5311 0.39351,-2.93383 0.17601,-3.94085 -0.85362,-3.95226 -0.91676,-0.0102 -1.01324,-0.26253 -0.28674,-0.75 0.60222,-0.40408 1.72722,-2.72718 2.5,-5.16245 0.99914,-3.14857 1.98288,-4.48183 3.40507,-4.61489 1.1,-0.10292 3.18841,-0.50939 4.64091,-0.90327 4.47425,-1.21328 4.01088,0.97365 -0.69023,3.25762 -4.97374,2.41643 -6.13686,5.23329 -1.82017,4.4081 1.871,-0.35766 2.50499,-0.1263 2.19579,0.8013 -0.23909,0.71729 -1.26527,1.42605 -2.2804,1.57504 -1.9873,0.29168 -3.50594,2.10477 -3.53058,4.21513 -0.0115,0.98835 1.0929,1.14509 4.48468,0.63646 2.475,-0.37115 4.49311,-0.28622 4.48469,0.18873 -0.0343,1.93664 -1.68482,3.11187 -5.3057,3.77793 -2.10156,0.38659 -4.37506,0.91549 -5.05223,1.17534 -0.67718,0.25986 -1.49859,0.2051 -1.82538,-0.12168 z m 20.92146,-5.0936 c -2.04756,-3.10919 -3.72535,-5.02788 -3.72841,-4.26376 -0.0111,2.75589 -2.10958,8.88931 -3.04143,8.88931 -1.52425,0 -1.10141,-9.1483 0.69648,-15.0685 l 1.64947,-5.4315 3.20336,6.86675 c 2.779,5.95707 3.28729,6.55322 3.83688,4.5 0.34843,-1.30171 0.63965,-3.29324 0.64716,-4.42562 0.008,-1.13238 0.71982,-2.93238 1.58291,-4 1.44809,-1.79125 1.52902,-1.32086 1.04803,6.09192 -0.28667,4.41817 -0.89256,9.03686 -1.34642,10.26375 -0.76217,2.06036 -1.10949,1.799 -4.54803,-3.42235 z m 8.69638,3.14261 c -1.39861,-2.13455 -1.45796,-3.18711 -0.42298,-7.50137 1.13432,-4.72839 5.57627,-11.01569 7.78253,-11.01569 0.53699,0 1.53654,0.675 2.22123,1.5 0.99492,1.19881 0.98704,1.8107 -0.0393,3.04733 -1.02816,1.23886 -1.45535,1.2887 -2.14276,0.25 -1.24872,-1.88683 -4.40424,2.18381 -5.26991,6.79823 -0.88552,4.72024 0.8159,6.75755 3.01793,3.61371 1.87559,-2.67778 3.43402,-2.85832 3.43402,-0.39783 0,2.21316 -3.54329,6.18856 -5.5159,6.18856 -0.79089,0 -2.17009,-1.11732 -3.06488,-2.48294 z m 13.46644,0.36859 c -4.43364,-4.43363 -0.20805,-18.88565 5.52192,-18.88565 5.47114,0 5.3808,13.15641 -0.13217,19.24817 -2.04433,2.25896 -2.82048,2.20676 -5.38975,-0.36252 z m 5.07916,-4.81991 c 1.29466,-2.4191 1.36646,-11.06574 0.0919,-11.06574 -1.92694,0 -4.05671,4.57931 -4.05671,8.72251 0,4.67877 2.06251,5.89773 3.96482,2.34323 z m 14.55021,3.64088 c -1.08444,-1.76364 -2.70222,-4.51025 -3.59505,-6.10358 l -1.62333,-2.89695 -0.67731,5.10585 c -1.0004,7.5414 -2.61934,7.47731 -2.61934,-0.1037 0,-6.29718 1.4802,-12.70824 2.93411,-12.70824 0.40614,0 2.00148,2.8125 3.54518,6.25 l 2.80674,6.25 0.7884,-4.85009 c 1.07979,-6.64258 1.81943,-8.43969 2.81234,-6.83313 0.80687,1.30556 5.34647,0.23288 6.42932,-1.5192 0.87868,-1.42173 9.68391,-0.25635 9.68391,1.28167 0,1.11076 0.48991,1.15466 2.52713,0.22644 3.69504,-1.68358 5.01826,0.0118 3.52966,4.52225 -0.6375,1.93164 -1.79922,4.04334 -2.5816,4.69266 -1.22859,1.01964 -1.22162,1.56906 0.0512,4.03033 0.81051,1.56736 1.47366,3.3221 1.47366,3.89941 0,2.0432 -2.55986,1.01193 -4.22069,-1.70034 l -1.68392,-2.75 -1.17912,3.34637 c -2.59096,7.35328 -4.01458,-2.8791 -1.5431,-11.09121 l 1.37317,-4.56269 -2.81071,0.97982 c -2.50214,0.87225 -2.88623,1.60274 -3.49852,6.65376 -0.37829,3.12067 -1.13574,6.53341 -1.68322,7.58385 -0.94695,1.81694 -1.04417,1.82278 -1.99706,0.12006 -0.55958,-0.99991 -0.72631,-4.1325 -0.37779,-7.09786 0.56383,-4.79732 0.44103,-5.29425 -1.27634,-5.16488 -1.62436,0.12236 -1.95577,1.12681 -2.2831,6.91961 -0.47168,8.34762 -1.64255,9.84904 -4.30457,5.51979 z m 24.48497,-13.47239 c 0,-1.30368 -0.31151,-1.26229 -2,0.26577 -1.1,0.99549 -1.98503,2.75273 -1.96673,3.90499 0.0324,2.03968 0.0852,2.03266 2,-0.26577 1.0817,-1.29844 1.96673,-3.05568 1.96673,-3.90499 z m 6.69322,15.99695 c -3.92086,-0.86738 -4.82684,-9.08878 -1.68106,-15.25502 2.14959,-4.21354 6.18337,-6.18064 8.31106,-4.05294 1.79636,1.79636 1.40252,10.14098 -0.69853,14.80027 -1.97782,4.38603 -2.99322,5.15769 -5.93147,4.50769 z m 4.12226,-7.48118 c 0.80996,-3.01649 0.55693,-8.67573 -0.43327,-9.69048 -0.2364,-0.24226 -1.1092,0.23891 -1.93956,1.06926 -1.71185,1.71185 -2.98976,8.00308 -2.09778,10.32753 1.02477,2.67053 3.55465,1.70495 4.47061,-1.70631 z m 6.20226,5.76888 c -1.10975,-1.18128 -2.01774,-2.93172 -2.01774,-3.88987 0,-1.6507 0.15685,-1.64943 2.99019,0.0243 2.39621,1.41547 3.23913,1.51741 4.24338,0.51315 1.00425,-1.00425 0.90688,-1.85659 -0.49019,-4.29085 -0.95886,-1.67071 -1.74338,-4.07109 -1.74338,-5.33417 0,-4.41863 5.03913,-6.02086 7.35745,-2.33937 1.42163,2.25753 0.0241,3.51734 -2.29511,2.06896 -2.7883,-1.74132 -3.16515,-0.45559 -1.03267,3.52316 2.0275,3.78288 1.78947,7.44857 -0.66813,10.28917 -1.87684,2.16934 -3.94872,1.98499 -6.3438,-0.56445 z M 172.28422,198.67925 c -1.21704,-0.48985 -2.78779,-1.81133 -3.49054,-2.93662 -1.26001,-2.01759 -1.98102,-2.04598 -51.96577,-2.04598 -55.60624,0 -53.83088,0.19513 -53.83088,-5.91644 0,-6.24348 -1.89265,-6.04063 59.0138,-6.32501 l 55.37523,-0.25855 -10.44452,-5.76474 c -5.74448,-3.17061 -14.04451,-6.97019 -18.44451,-8.44352 -7.29726,-2.44347 -9.22979,-2.66448 -22,-2.51595 -7.7,0.0896 -15.8,0.28914 -18,0.44352 -3.01364,0.21147 -4,-0.0892 -4,-1.21931 0,-2.39265 8.85514,-4.1772 21,-4.23205 13.38359,-0.0605 25.18049,2.60248 37,8.35208 7.86442,3.82564 7.942,3.84122 4.57769,0.9191 -8.12831,-7.05994 -23.35697,-13.20336 -37.3428,-15.06453 -11.5071,-1.53131 -22.4069,-0.0868 -38.21372,5.06417 -11.67553,3.80474 -14.49161,3.93254 -13.21265,0.59963 0.67171,-1.75044 19.6978,-8.05853 29.40347,-9.7487 8.98229,-1.5642 26.99021,-0.57297 35.49962,1.95405 9.32197,2.76832 18.17025,7.30774 26.58852,13.64068 5.71162,4.29677 6.8219,4.84412 5.48078,2.70194 -3.27915,-5.23778 -14.1361,-18.73836 -17.93078,-22.29687 -12.26514,-11.50177 -32.33886,-22.76102 -48.13759,-27.00012 -9.51729,-2.55367 -11.59028,-3.73098 -10.26661,-5.83071 0.77339,-1.22685 2.39458,-1.02633 10.89393,1.3474 13.76562,3.84452 23.45027,8.2493 34.90545,15.87573 15.80134,10.51994 30.21399,26.74764 38.68989,43.56226 l 2.69382,5.34406 2.83202,-4.46563 c 3.67829,-5.80007 14.67365,-17.42826 21.3125,-22.53916 10.85647,-8.35781 23.95329,-14.56884 37.19682,-17.64022 8.4963,-1.97043 8.73113,-1.95455 8.34919,0.56431 -0.26575,1.75267 -1.83459,2.49361 -9.31955,4.40149 -14.79318,3.77071 -27.62013,10.49167 -38,19.91092 l -4,3.62982 4.82621,-2.94899 c 15.17967,-9.27535 37.14147,-13.26829 55.24013,-10.04337 8.61643,1.53532 28.29334,8.13464 28.88987,9.6892 1.06544,2.77648 -3.13763,2.46556 -13.86122,-1.0254 -6.10224,-1.98652 -14.80063,-4.1372 -19.32974,-4.77928 -16.81545,-2.38391 -37.17114,2.42543 -51.86639,12.25421 -10.08375,6.74443 -10.04441,7.50883 0.11954,2.32256 11.35693,-5.795 23.1195,-8.51858 36.79001,-8.51858 12.31032,0 17.88208,1.09628 50.44159,9.92471 3.98097,1.07943 5.51821,3.17346 3.32481,4.52905 -0.50885,0.31449 -9.62135,-1.70776 -20.25,-4.49389 -35.07795,-9.19511 -49.48166,-8.04819 -74.32481,5.91827 l -10,5.62186 55.597,0.5 c 60.33998,0.54266 58.903,0.39468 58.903,6.06574 0,6.00166 0.62187,5.93426 -54.75389,5.93426 -44.33456,0 -50.37892,0.18252 -50.89867,1.53699 -1.26906,3.30711 -5.8874,4.46503 -17.54778,4.39962 -6.21481,-0.0349 -12.29542,-0.46417 -13.51247,-0.95401 z m -99.9208,-25.47018 c -0.93374,-2.43328 0.30038,-3.15509 9.30022,-5.4395 10.24725,-2.60104 13.59941,-2.69276 13.15012,-0.35978 -0.22845,1.18622 -2.66094,2.38095 -7.90877,3.8844 -12.60414,3.61096 -13.82883,3.77223 -14.54157,1.91488 z m 25.63361,-7.51242 c 0,-1.50615 0.52215,-2.04609 1.75,-1.80963 0.9625,0.18536 1.75,0.99969 1.75,1.80963 0,0.80994 -0.7875,1.62427 -1.75,1.80963 -1.22785,0.23646 -1.75,-0.30348 -1.75,-1.80963 z m 64.80385,-51.75 C 141.01712,92.055652 140.09806,90.973237 138.46017,85.279639 c -3.90696,-13.581315 2.75917,-28.13475 15.51161,-33.864778 8.97098,-4.030915 22.92502,-1.918806 29.7628,4.504952 l 2.26245,2.125468 2.25,-2.061463 c 10.45879,-9.582402 28.77194,-8.646565 38.35432,1.959979 5.24851,5.809481 7.52068,11.626202 7.52068,19.252856 0,11.00907 -1.63703,13.395245 -25.89834,37.749997 -11.9166,11.9625 -21.91803,21.75 -22.2254,21.75 -0.30737,0 -10.7462,-10.2375 -23.19741,-22.75 z m 6.19615,-12.4282 c 0,-0.64801 -3.33773,-4.60803 -7.41717,-8.800051 -8.57453,-8.811139 -9.96068,-12.536687 -7.35773,-19.77521 1.576,-4.382657 0.81587,-6.355354 -1.6578,-4.302387 -1.53489,1.273846 -3.76797,9.245039 -3.14708,11.233813 0.22701,0.727121 0.70435,2.641046 1.06077,4.253168 0.38763,1.753283 3.7056,6.073069 8.25694,10.75 7.15934,7.356897 10.26207,9.364707 10.26207,6.640667 z m 11.73651,-34.531309 c 0.49533,-1.485989 -4.88637,-5.170461 -8.65235,-5.923656 -4.86949,-0.973899 -3.88228,1.935219 1.66584,4.908928 4.93185,2.643396 6.37381,2.852827 6.98651,1.014728 z M 162.2137,63.51332 c -1.52751,-1.527513 -2.65464,-0.400386 -1.80742,1.807422 0.50023,1.303582 0.93391,1.432752 1.82354,0.543128 0.88962,-0.889623 0.88579,-1.448644 -0.0161,-2.35055 z m 109.78333,72.32381 c -4.68281,-0.85693 -4.72796,-3.52351 -0.0672,-3.96747 5.65616,-0.53878 10.24045,0.68446 9.87134,2.634 -0.35619,1.88133 -4.05856,2.38489 -9.80416,1.33347 z m -12,-1.53349 c 0,-1.50843 2.42909,-2.84457 3.40224,-1.87142 1.3169,1.3169 0.48035,3.26443 -1.40224,3.26443 -1.1,0 -2,-0.62686 -2,-1.39301 z"
         id="path1" />
    </g>
  </g>
</svg>
